<?xml version="1.0" standalone="no"?>
<!DOCTYPE svg PUBLIC "-//W3C//DTD SVG 20010904//EN" "http://www.w3.org/TR/2001/REC-SVG-20010904/DTD/svg10.dtd">
<svg version="1.0" xmlns="http://www.w3.org/2000/svg" width="90.000000pt" height="47.000000pt" viewBox="0 0 152.000000 47.000000" preserveAspectRatio="xMidYMid meet">
  <g transform="translate(0.000000,47.000000) scale(0.100000,-0.100000)" fill="#FFFFFF" stroke="none">
    <path d="M194 416 c-50 -22 -51 -34 -3 -80 24 -22 33 -29 20 -14 -30 34 -19 51 30 46 34 -3 44 1 71 29 l32 33 -60 0 c-32 -1 -73 -7 -90 -14z"/>
    <path d="M588 307 c34 -35 42 -50 42 -80 0 -30 4 -37 20 -37 16 0 20 7 20 37 0 30 8 45 42 80 40 40 41 43 18 43 -13 0 -37 -12 -52 -27 l-28 -27 -28 27 c-15 15 -39 27 -52 27 -23 0 -22 -3 18 -43z"/>
    <path d="M795 341 c-3 -5 -2 -41 1 -80 5 -50 11 -71 20 -71 10 0 14 15 14 50 0 28 4 50 8 50 5 0 19 -11 32 -25 13 -14 27 -25 31 -25 4 0 21 11 37 25 17 14 33 25 36 25 3 0 6 -22 6 -50 0 -38 4 -50 15 -50 12 0 15 16 15 80 0 70 -2 80 -18 80 -10 0 -33 -16 -52 -35 l-33 -34 -39 34 c-38 35 -62 43 -73 26z"/>
    <path d="M1080 335 c0 -12 13 -15 57 -15 l 57 0 -57 -58 c-31 -32 -57 -61 -57 -65 0 -4 41 -7 90 -7 73 0 90 3 90 15 0 12 -13 15 -57 15 l-58 1 58 54 c-33 30 56 59 52 64 -3 7 -42 11 -91 11 -68 0 -84 -3 -84 -15z"/>
    <path d="M350 268 c-52 -11 -96 -21 -98 -22 -1 -2 4 -20 11 -42 32 -92 34 -89 -33 -86 -58 4 -60 5 -60 32 0 15 -7 33 -15 40 -25 21 -18 42 12 38 49 -6 36 20 -17 31 -84 18 -83 18 -78 -42 9 -112 81 -187 187 -195 78 -6 121 10 169 62 51 56 76 139 56 190 -7 19 -14 19 -134 -6z m-30 -63 c-12 -15 -30 -12 -30 6 0 5 10 9 21 9 18 0 19 -2 9 -15z"/>
  </g>
</svg>